<?xml version="1.0" encoding="iso-8859-1"?>
<!-- Generator: Adobe Illustrator 16.0.0, SVG Export Plug-In . SVG Version: 6.00 Build 0)  -->
<!DOCTYPE svg PUBLIC "-//W3C//DTD SVG 1.1//EN" "http://www.w3.org/Graphics/SVG/1.1/DTD/svg11.dtd">
<svg version="1.1" id="Capa_1" xmlns="http://www.w3.org/2000/svg" xmlns:xlink="http://www.w3.org/1999/xlink" x="0px" y="0px"
	 width="611.998px" height="611.998px" viewBox="0 0 611.998 611.998" style="enable-background:new 0 0 611.998 611.998;"
	 xml:space="preserve">
<g>
	<g>
		<path d="M306.66,449.214l-1.149,0.092c-3.331,0.262-33.111,2.83-51.669,11.387l-8.906,4.107l0.483,9.799
			c0.085,1.717,1.033,17.244,8.093,33.338c10.44,23.803,29.315,36.908,53.143,36.908c23.826,0,42.702-13.105,53.143-36.908
			c7.06-16.094,8.007-31.621,8.093-33.338l0.482-9.799l-8.905-4.107c-18.558-8.564-48.332-11.125-51.67-11.387L306.66,449.214z
			 M333.201,496.267c-3.68,8.387-10.429,19.531-26.541,19.531c-7.598,0-18.594-1.963-26.278-18.943
			c-2.078-4.59-3.441-9.273-4.334-13.258c10.979-2.971,24.243-4.658,30.612-5.232c6.375,0.58,19.64,2.268,30.611,5.238
			C336.421,487.403,335.132,491.86,333.201,496.267z"/>
		<path d="M130.203,183.134c0,0,46.101-39.909,83.455-55.142c0,0-44.511-32.647-90.606-50.789
			C123.045,77.204,114.304,148.305,130.203,183.134z"/>
		<path d="M398.33,127.993c37.354,15.239,83.454,55.142,83.454,55.142c15.899-34.83,7.152-105.931,7.152-105.931
			C442.841,95.34,398.33,127.993,398.33,127.993z"/>
		<path d="M559.499,248.489c-19.34-18.502-29.304-36.785-28.814-52.867c0.3-9.811,4.487-15.703,4.529-15.752l2.861-3.509l0.36-4.511
			c0.086-1.045,2.054-25.978,1.938-55.991c-0.165-41.529-4.248-71.48-12.14-89.011l-4.456-9.902l-10.758,1.467
			c-2.769,0.379-67.238,9.713-139.194,63.674c-11.406-1.84-36.535-5.208-67.825-5.256c-31.296,0.049-56.425,3.417-67.825,5.256
			C166.218,28.126,101.749,18.792,98.98,18.413l-10.758-1.467l-4.456,9.902c-7.891,17.531-11.974,47.482-12.139,89.005
			c-0.116,30.012,1.852,54.945,1.938,55.991l0.361,4.511l2.86,3.508c0.043,0.049,4.23,5.948,4.529,15.752
			c0.489,16.082-9.474,34.365-28.814,52.868C-6.541,304.976,0.055,404.567,0.366,408.778l2.91,39.604
			c0,0,29.383-43.559,46.088-51.797c-8.129,37.291,14.811,84.084,14.811,84.084s12.714-27.648,26.822-40.955
			c20.391,35.33,59.359,55.521,61.272,56.492l3.509,1.785l3.93-0.227c19.896-1.154,38.662,5.086,47.929,8.826
			c2.06,10.918,3.001,20.57,1.87,26.688c-2.506,13.602,0.532,26.027,8.79,35.936c14.475,17.391,43.38,25.838,88.363,25.838
			s73.889-8.453,88.363-25.838c8.252-9.914,11.289-22.34,8.789-35.936c-1.148-6.229-0.152-16.105,1.98-27.256
			c9.677-3.771,27.574-9.357,46.498-8.264l3.931,0.227l3.509-1.785c1.913-0.973,40.881-21.162,61.272-56.492
			c14.107,13.307,26.821,40.953,26.821,40.953s22.94-46.791,14.811-84.084c16.712,8.24,46.089,51.799,46.089,51.799l2.909-39.604
			C611.945,404.573,618.534,304.981,559.499,248.489z M523.759,363.026c0,0,11.345,27.934,10.372,49.432
			c-6.081-5.086-10.733-7.939-11.131-8.184l-15.782-9.586c0,0-17.005,52.396-57.586,73.908c-12.995-0.252-25.245,1.729-35.521,4.32
			c2.519-8.41,5.141-16.289,7.476-22.664l2.531-6.908l-4.065-6.131c-0.165-0.244-16.394-24.805-29.56-54.609
			c-4.071-9.211-7.391-17.891-9.951-25.953c3.19,0.746,6.546,1.143,10,1.143l0,0c6.008,0,11.975-1.148,17.726-3.424
			c10.116-3.996,18.454-11.082,23.479-19.957c5.526-9.762,6.492-20.434,2.641-30.177c-2.322-5.88-6.247-14.126-11.266-14.126h67.385
			v-30.563h-75.483c-15.281,0-28.319,2.769-38.754,7.763c-10.611,5.08-18.68,12.781-23.979,22.665
			c-12.524,23.356-8.618,58.485,11.626,104.305c10.232,23.166,21.981,43.105,27.978,52.77c-6.296,18.379-21.309,66.168-16.65,91.467
			c1.21,6.559-0.728,9.908-2.543,12.098c-8.136,9.773-32.207,15.379-66.04,15.379s-57.904-5.605-66.04-15.379
			c-1.821-2.182-3.753-5.531-2.542-12.084c4.664-25.307-10.349-73.076-16.651-91.457c5.997-9.664,17.745-29.572,27.977-52.738
			c20.239-45.82,24.151-80.887,11.62-104.244c-5.299-9.884-13.368-17.708-23.979-22.788c-10.434-4.994-23.472-7.763-38.753-7.763
			h-74.537v30.562h67.128c-5.018,0-8.942,8.246-11.265,14.126c-3.845,9.744-2.885,20.672,2.641,30.434
			c5.024,8.877,13.362,15.832,23.478,19.83c5.752,2.273,11.718,3.361,17.727,3.361c3.191,0,6.29-0.373,9.26-1.008
			c-2.524,7.916-5.776,16.406-9.75,25.422c-13.142,29.848-29.548,54.701-29.707,54.945l-4.065,6.125l2.53,6.9
			c2.372,6.475,5.037,14.48,7.586,23.033c-10.557-2.77-23.344-4.957-36.95-4.689c-40.582-21.516-57.593-73.906-57.593-73.906
			l-15.782,9.584c-0.404,0.246-5.049,3.1-11.137,8.186c-0.972-21.498,10.373-49.432,10.373-49.432s-29.169-7.061-58.13,11.039
			c2.714-30.471,12.097-75.521,42.476-104.592c25.819-24.701,38.521-49.848,37.763-74.738c-0.416-13.613-4.951-23.558-8.105-28.894
			c-1.84-26.119-3.649-84.469,4.382-116.218c21.205,5.214,68.638,20.336,118.883,59.34l5.244,4.065l6.504-1.29
			c0.293-0.061,29.622-5.795,68.748-5.856c39.121,0.061,68.449,5.801,68.742,5.856l6.504,1.29l5.244-4.065
			c50.252-38.992,97.691-54.108,118.89-59.322c8.031,31.743,6.223,90.093,4.383,116.218c-3.16,5.336-7.689,15.282-8.105,28.894
			c-0.758,24.891,11.95,50.038,37.764,74.738c30.379,29.071,39.762,74.121,42.476,104.591
			C552.928,355.972,523.759,363.026,523.759,363.026z M391.618,312.226c2.231-0.881,4.591-1.352,6.815-1.352
			c4.022,0,7.439,1.553,8.313,3.771c1.326,3.355-2.488,9.377-9.396,12.104c-2.23,0.879-4.59,1.35-6.815,1.35
			c-4.021,0-7.438-1.553-8.312-3.771C380.896,320.966,384.71,314.95,391.618,312.226z M231.787,324.327
			c-0.874,2.219-4.297,3.771-8.313,3.771c-2.225,0-4.584-0.465-6.815-1.35c-3.759-1.486-6.871-4.023-8.533-6.957
			c-0.636-1.125-1.595-3.295-0.862-5.152c0.874-2.219,4.297-3.771,8.313-3.771c2.225,0,4.584,0.465,6.815,1.352
			C229.293,314.95,233.107,320.966,231.787,324.327z"/>
	</g>
</g>
<g>
</g>
<g>
</g>
<g>
</g>
<g>
</g>
<g>
</g>
<g>
</g>
<g>
</g>
<g>
</g>
<g>
</g>
<g>
</g>
<g>
</g>
<g>
</g>
<g>
</g>
<g>
</g>
<g>
</g>
</svg>
